<svg xmlns="http://www.w3.org/2000/svg" id="Warstwa_1" viewBox="0 0 75 75">
    <style>.st0{fill:#E2E2E2;} .st1{fill:#4F4F4F;} .st2{fill:#7C7C7C;} .st3{fill:none;}</style>
    <ellipse id="XMLID_9_" cx="30.9" cy="55.7" class="st0" rx="25.9" ry="1.3"/>
    <path d="M36.1 49.1L55 48s-.3-5.2-2.1-12.4c-1-3.8-1.9-6.6-5.1-12.4L5.5 46.3c-.1 0-.2 0-.3-.1 0-.1-.1-.2-.2-.3-.2-.2-.5-.3-.8-.2-.4.1-.7.6-.5 1l1.5 4.9c.1.4.6.7 1 .6.4-.1.6-.6.5-1 .1-.2.3-.3.4-.3l14.6-.9c.7 0 .9.5.9.6v3c0 .4.2 1.2.8 1.7.6.5 1.5.7 2.7.7 2.6 0 6-.2 6.5-.3h.1c.3 0 1 0 1.6-.5.7-.5 1.2-1.4 1.1-2.6 0-.8 0-1.8-.1-2.9.1-.1.2-.5.8-.6zM33 52.7c0 .6-.1.6-.2.6l-.2.1h-.2s-.9.1-2.2.1c-1.3.1-2.9.1-4.2.1-.6 0-.9-.1-1.1-.1v-3.7l8-.5c.1 1.2.1 2.4.1 3.4 0-.1 0 0 0 0z"/>
    <path id="XMLID_6_" d="M44.5 29c1.1-.7.2-1.3-.4-1.3L7.3 47.4s-.2.2-.1.4c0 .2.3.2.3.2l37-19z"
          class="st1"/>
    <path id="XMLID_5_"
          d="M54.5 27.8c-.3-.3-.2-.7 0-1l9.3-8.5c.3-.3.7-.2 1 0 .3.3.2.7 0 1l-9.3 8.5c-.2.1-.3.2-.5.2s-.4-.1-.5-.2z"/>
    <path id="XMLID_4_"
          d="M70.5 46.5l-11.4-2.7c-.4-.1-.6-.5-.5-.8.1-.4.5-.6.8-.5l11.4 2.7c.4.1.6.5.5.8-.1.3-.4.5-.7.5h-.1z"/>
    <path id="XMLID_3_"
          d="M58.7 35c-.1-.4.1-.7.4-.9l10-3.3c.4-.1.7.1.9.4.1.4-.1.7-.4.9l-10 3.3h-.2c-.3 0-.6-.1-.7-.4z"/>
    <ellipse id="XMLID_2_" cx="51.5" cy="35.6" transform="rotate(-16.41 51.47 35.55)" class="st2"
             rx="2.1" ry="12.9"/>
    <path id="XMLID_1_" d="M0 15.3h75v44.3H0z" class="st3"/>
</svg>
